<svg data-v-0dd9719b="" version="1.0" xmlns="http://www.w3.org/2000/svg" xmlns:xlink="http://www.w3.org/1999/xlink" width="100%" height="100%" viewBox="0 0 340.000000 250.000000" preserveAspectRatio="xMidYMid meet" color-interpolation-filters="sRGB" style="margin: auto;"> <rect data-v-0dd9719b="" x="0" y="0" width="100%" height="100%" fill="#fff" fill-opacity="1" class="background"></rect> <rect data-v-0dd9719b="" x="0" y="0" width="100%" height="100%" fill="url(#watermark)" fill-opacity="1" class="watermarklayer"></rect> <g data-v-0dd9719b="" fill="#333" class="icon-text-wrapper icon-svg-group iconsvg" transform="translate(63.295005798339844,94.99219703674316)"><g class="iconsvg-imagesvg" transform="translate(0,0)"><g><rect fill="#333" fill-opacity="0" stroke-width="2" x="0" y="0" width="60" height="60.01560405705484" class="image-rect"></rect> <svg x="0" y="0" width="60" height="60.01560405705484" filtersec="colorsb6607411930" class="image-svg-svg primary" style="overflow: visible;"><svg xmlns="http://www.w3.org/2000/svg" viewBox="0 -0.00010589598241494969 99.98422241210938 100.01046752929688"><path d="M60.79 98.82a50 50 0 0 1-55-25.35c9.19-1.45 20.25.1 31.39 9.45a141.54 141.54 0 0 0 23.61 15.9z" fill="#e01c4e"></path><path d="M88.44 82a50.21 50.21 0 0 1-19.58 14.31A138.48 138.48 0 0 1 41 78.36C27.52 67 14.12 65.7 3.27 67.86a49.62 49.62 0 0 1-3-12.62c10.44-5.89 26.35-8.43 45.82 8.87A75.91 75.91 0 0 0 61.68 75a61.6 61.6 0 0 0 26.76 7z" fill="#f47725"></path><path d="M99.55 43.47A50 50 0 0 1 92.72 76a55.52 55.52 0 0 1-28.32-6.33 70.51 70.51 0 0 1-14.4-10c-20.73-18.43-38-17-50-11.12a50 50 0 0 1 2.37-13.87c13.63-3.25 31.12-3.5 49.13 6.59 17.59 9.84 34.34 7.93 48.05 2.2z" fill="#ffc313"></path><path d="M91 21.38a49.88 49.88 0 0 1 7.43 16.13c-12.58 5.51-28 7.55-44-1.43a71.94 71.94 0 0 0-49.43-8 49.68 49.68 0 0 1 6.66-10.23 95.3 95.3 0 0 1 41.84 4.88c12 4.24 24.17 3 35-.48.82-.25 1.65-.57 2.5-.87z" fill="#4dc2d4"></path><path d="M50 0a49.86 49.86 0 0 1 37.06 16.46l-.42.14c-9.68 3.16-20.53 4.27-31.13.52a101.36 101.36 0 0 0-37.38-5.66A49.76 49.76 0 0 1 50 0z" fill="#23b4a7"></path></svg></svg> <!----></g></g> <g transform="translate(67,4.781553268432617)"><g data-gra="path-name" fill-rule="" class="tp-name iconsvg-namesvg" transform="translate(0,0)"><g transform="scale(1)"><g><path d="M7.8-17.6L7.8-31.11 14.11-31.11 14.11-17.6 35.75-17.6 35.75-11.98 27.58-11.98Q27.86-10.55 28.23-9.54L28.23-9.54Q29.05-7.36 30.41-5.3L30.41-5.3Q32.96-1.71 35.02-0.9L35.02-0.9 35.02 4.35 34.96 4.35Q30.19 4.35 25.99-0.46L25.99-0.46Q25.99-0.51 25.66-0.86L25.66-0.86Q24.46-2.44 23.86-3.56L23.86-3.56Q23.12-4.88 22.46-6.61L22.46-6.61Q21.95-7.95 21.49-9.93L21.49-9.93Q21.34-10.77 21.18-11.98L21.18-11.98 14.11-11.98 14.11-0.88 18.85-0.88 18.85 4.39 7.8 4.39 7.8-11.98 3.01-11.98 1.6-17.6 7.8-17.6ZM25.88-29.93L25.88-30.34 32.1-30.34 32.1-29.93Q32.1-24.72 27.2-21.75L27.2-21.75Q25.91-20.98 24.61-20.5L24.61-20.5Q20.61-19.03 16.3-19.03L16.3-19.03 16.28-19.07 16.28-24.35Q18.02-24.35 20.98-25.29L20.98-25.29Q25.88-27.11 25.88-29.93L25.88-29.93ZM57.9-6.17L57.9-30.74 63.83-30.74 63.83-6.17 57.9-6.17ZM39.18-30.3L39.18-30.3 45.46-30.3Q46.05-29.25 46.82-27.14L46.82-27.14Q47.24-25.99 47.64-24.26L47.64-24.26Q47.9-22.94 47.9-22.39L47.9-22.39 41.62-22.39Q41.62-23.27 40.45-26.96L40.45-26.96 39.55-29.36Q39.22-30.12 39.18-30.3ZM50.71-26.13L50.71-28.28 56.12-28.28 56.12-24.41Q56.12-11.91 51.5-9.21L51.5-9.21Q50.82-8.77 49.64-8.5L49.64-8.5Q49.55-8.5 49.22-8.44L49.22-8.44 49.2-8.48 49.2-14.37Q49.2-14.41 49.46-14.92L49.46-14.92Q49.9-15.89 50.14-16.98L50.14-16.98Q50.71-19.16 50.71-26.13L50.71-26.13ZM65.59-26.04L65.59-28.28 71.02-28.28 71.02-25.38Q71.02-18.5 71.76-16.28L71.76-16.28Q72.05-15.29 72.4-14.61L72.4-14.61Q72.51-14.48 72.51-14.39L72.51-14.39 72.51-8.44Q71.26-8.61 70.36-9.12L70.36-9.12Q68.47-10.22 67.43-12.59L67.43-12.59Q66.97-13.43 66.45-15.56L66.45-15.56Q65.59-18.81 65.59-26.04L65.59-26.04ZM39.18-20.57L39.18-20.57 45.46-20.57Q46.45-18.57 47.35-15.45L47.35-15.45Q47.92-13.34 47.92-12.33L47.92-12.33 47.88-12.3 41.62-12.3Q41.26-14.17 40.67-16.24L40.67-16.24Q39.9-18.92 39.18-20.57ZM41.62-10.31L41.62-10.31 47.9-10.31 47.9-10.28Q46.58-4.68 45.66 1.93L45.66 1.93Q45.46 3.78 45.46 4.39L45.46 4.39 39.16 4.39Q39.18 1.38 40.8-6.97L40.8-6.97Q41.24-8.85 41.62-10.31ZM66.86-7.32L66.86-7.32 72.88-7.32Q72.88-6.68 72.4-5.16L72.4-5.16Q70.93-1.43 65.68 1.1L65.68 1.1Q64.62 1.56 63.87 1.85L63.87 1.85Q61.96 2.64 58.07 3.52L58.07 3.52Q53.33 4.39 49.59 4.39L49.59 4.39 49.15 4.39 49.15-0.51 49.17-0.51Q51.97-0.51 56.98-1.56L56.98-1.56Q60.64-2.46 62.86-3.54L62.86-3.54Q64.07-4.09 65.37-5.1L65.37-5.1Q66.45-6.15 66.56-6.55L66.56-6.55Q66.73-6.83 66.86-7.32ZM76.25-30.56L76.25-30.56 82.18-30.56Q83.08-28.76 83.94-24.92L83.94-24.92Q84.27-23.36 84.27-22.35L84.27-22.35 84.27-22.3 78.35-22.3Q78.35-23.69 76.75-29.16L76.75-29.16Q76.49-29.93 76.25-30.56ZM87.39-14.17L87.39-30.39 108.46-30.39 108.46-14.17 94.77-14.17 93.36-18.63 93.34-18.63 93.34-14.17 87.39-14.17ZM102.48-25.84L93.34-25.84 93.34-24.37 102.48-24.37 102.48-25.84ZM76.25-20.57L76.25-20.57 82.16-20.57Q82.31-20.39 82.68-19.38L82.68-19.38Q83.47-17.2 84.09-14.04L84.09-14.04Q84.27-12.96 84.27-12.35L84.27-12.35 84.27-12.33 78.35-12.33Q78.35-13.82 77.01-18.48L77.01-18.48Q76.6-19.8 76.25-20.57ZM102.48-20.19L93.34-20.19 93.34-18.72 102.48-18.72 102.48-20.19ZM86.15-0.15L86.15-12.66 109.45-12.66Q109.47-12.63 109.47-12.61L109.47-12.61 109.47-0.15 110.5-0.15 110.5 4.39 85.58 4.39Q84.62 1.27 84.16-0.15L84.16-0.15 86.15-0.15ZM78.35-10.59L84.27-10.59 84.27-10.57Q83.23-6.13 82.4 0.68L82.4 0.68Q82.18 2.57 82.18 3.78L82.18 3.78 82.18 4.13 76.25 4.13 76.25 3.98Q76.25 0.73 77.54-7.03L77.54-7.03Q77.98-9.32 78.35-10.59L78.35-10.59ZM92.42-8.44L91.38-8.44 91.38-0.15 92.42-0.15 92.42-8.44ZM98.33-8.44L97.29-8.44 97.29-0.15 98.33-0.15 98.33-8.44ZM104.24-8.44L103.21-8.44 103.21-0.15 104.24-0.15 104.24-8.44ZM146.07-30.92L147.7-31.11 147.7-27.38Q147.7-27.29 146.14-27.11L146.14-27.11Q139.75-26.61 131.86-26.61L131.86-26.61 131.29-26.61Q127.02-26.63 127.02-26.81L127.02-26.81 127.02-30.37Q128.08-30.34 128.94-30.34L128.94-30.34 129.38-30.34Q137.02-30.34 146.07-30.92L146.07-30.92ZM113.47 3.93L113.47-30.96 126.15-30.96 126.15 3.98 120.17 3.98Q120.1 3.98 119.84 2.79L119.84 2.79Q118.96-0.57 118.72-1.6L118.72-1.6 118.7-1.6 118.7 3.98 113.51 3.98Q113.47 3.98 113.47 3.93L113.47 3.93ZM127.84-25.99L127.84-25.99 132.96-25.99Q133.24-25.71 133.57-24.43L133.57-24.43Q133.92-22.96 133.92-21.67L133.92-21.67 128.78-21.67Q128.78-23.12 127.95-25.77L127.95-25.77Q127.9-25.77 127.84-25.99ZM134.45-25.99L134.45-25.99 139.57-25.99Q139.83-25.66 140.03-24.98L140.03-24.98Q140.54-23.33 140.54-21.67L140.54-21.67 135.4-21.67Q135.4-23.12 134.56-25.77L134.56-25.77Q134.52-25.77 134.45-25.99ZM142.36-25.99L142.36-25.99 147.46-25.99 147.46-25.97Q147.08-25.18 146.67-23.03L146.67-23.03Q146.51-22.08 146.51-21.67L146.51-21.67 141.39-21.67 141.39-21.69Q141.39-23.77 142.14-25.64L142.14-25.64Q142.32-25.97 142.36-25.99ZM120.92-25.33L118.7-25.33 118.7-16.3 120.92-16.3 120.92-25.33ZM128.28-16.74L126.87-20.94 147.63-20.94 147.63-16.74 135.18-16.74 135.18-15.82 148.01-15.82 148.01-11.62 135.18-11.62Q135.15-10.74 135.11-10.15L135.11-10.15 138.43-10.15Q141.77-10.15 146.67-10.17L146.67-10.17Q147.19-10.15 148.01-10.15L148.01-10.15Q148.01-6.13 145.9-2.55L145.9-2.55Q145.33-1.65 144.51-0.68L144.51-0.68 144.51-0.66Q146.73 0.24 147.99 0.29L147.99 0.29 147.99 4.39 147.92 4.39Q144.4 4.39 141.06 2.64L141.06 2.64Q140.82 2.48 140.67 2.44L140.67 2.44Q137.07 4.39 132.87 4.39L132.87 4.39 132.76 4.39 132.76 0.29 132.78 0.29Q133.77 0.29 135.68-0.33L135.68-0.33Q135.7-0.33 136.74-0.79L136.74-0.79Q135.33-2.42 134.69-3.82L134.69-3.82Q134.25-4.94 134.25-5.19L134.25-5.19 134.23-5.19Q133.59-2.9 132.8-1.14L132.8-1.14Q132.12 0.44 130.98 2L130.98 2Q129.07 4.37 127.18 4.37L127.18 4.37 127.05 4.37 127.05-1.19Q127.05-1.25 127.42-1.74L127.42-1.74Q127.88-2.53 128.36-3.76L128.36-3.76Q129.97-7.98 129.97-11.49L129.97-11.49 129.97-11.62 127.97-11.62Q127.92-11.62 127.05-14.24L127.05-14.24Q126.94-14.55 126.5-15.8L126.5-15.8 126.54-15.82 129.97-15.82 129.97-16.74 128.28-16.74ZM120.92-10.68L118.7-10.68 118.7-1.67 120.92-1.67 120.92-10.68ZM142.4-6.09L134.45-6.09Q134.45-6 134.32-5.47L134.32-5.47 139.22-5.47Q139.61-4.75 140.21-4.02L140.21-4.02Q140.52-3.65 140.58-3.6L140.58-3.6Q141.9-5.08 142.4-6.09L142.4-6.09Z" transform="translate(-1.600000023841858, 31.110000610351562)"></path></g> <!----> <!----> <!----> <!----> <!----> <!----> <!----></g></g> <g data-gra="path-slogan" fill-rule="" class="tp-slogan iconsvg-slogansvg" fill="#333" transform="translate(7.5099945068359375,41.5)"><rect width="0"></rect> <rect x="134.38999938964844" width="2.019989013671875"></rect> <g transform="translate(0,0)"><g transform="scale(1)"><path d="M8.06-6.05L8.06-6.05L6.94-6.05Q6.52-7.78 4.55-7.83L4.55-7.83Q1.83-7.69 1.73-4.36L1.73-4.36Q1.73-0.80 4.59-0.80L4.59-0.80Q6.56-0.84 7.03-3.19L7.03-3.19L8.16-3.19Q7.64 0.05 4.36 0.14L4.36 0.14Q0.61 0 0.52-4.31L0.52-4.31Q0.70-8.63 4.55-8.81L4.55-8.81Q7.59-8.72 8.06-6.05ZM10.69-5.06L15.19-5.06L15.19-8.58L16.36-8.58L16.36 0L15.19 0L15.19-3.98L10.69-3.98L10.69 0L9.52 0L9.52-8.58L10.69-8.58L10.69-5.06ZM23.81 0L22.97-2.48L19.50-2.48L18.61 0L17.44 0L20.67-8.58L21.98-8.58L25.08 0L23.81 0ZM21.23-7.31L19.88-3.52L22.55-3.52L21.28-7.31L21.23-7.31ZM27.52-8.58L31.83-1.64L31.83-8.58L32.95-8.58L32.95 0L31.64 0L27.28-6.94L27.23-6.94L27.23 0L26.11 0L26.11-8.58L27.52-8.58ZM41.16-3.61L38.53-3.61L38.53-4.59L42.28-4.59L42.28 0L41.53 0L41.25-1.08Q40.27 0.09 38.44 0.14L38.44 0.14Q36.70 0.14 35.77-0.75L35.77-0.75Q34.36-2.06 34.41-4.36L34.41-4.36Q34.73-8.63 38.48-8.81L38.48-8.81Q41.67-8.63 42.14-6L42.14-6L41.02-6Q40.55-7.78 38.44-7.83L38.44-7.83Q35.77-7.64 35.63-4.31L35.63-4.31Q35.63-0.75 38.48-0.75L38.48-0.75Q39.52-0.75 40.27-1.31L40.27-1.31Q41.20-2.06 41.16-3.61L41.16-3.61ZM50.34-6.09L50.34-6.09L49.27-6.09Q49.17-7.73 47.11-7.83L47.11-7.83Q45.19-7.78 45.19-6.33L45.19-6.33Q45.19-5.39 46.22-5.25L46.22-5.25L48.66-4.69Q50.58-4.22 50.58-2.34L50.58-2.34Q50.53 0.05 47.20 0.14L47.20 0.14Q45.38 0.14 44.63-0.61L44.63-0.61Q43.69-1.31 43.73-2.77L43.73-2.77L44.86-2.77Q44.91-0.80 47.20-0.75L47.20-0.75Q49.45-0.80 49.50-2.20L49.50-2.20Q49.69-3.38 47.63-3.75L47.63-3.75L45.84-4.13Q44.02-4.64 44.02-6.19L44.02-6.19Q44.16-8.72 47.02-8.81L47.02-8.81Q50.25-8.81 50.34-6.09ZM53.20-5.06L57.70-5.06L57.70-8.58L58.88-8.58L58.88 0L57.70 0L57.70-3.98L53.20-3.98L53.20 0L52.03 0L52.03-8.58L53.20-8.58L53.20-5.06ZM66.33 0L65.48-2.48L62.02-2.48L61.13 0L59.95 0L63.19-8.58L64.50-8.58L67.59 0L66.33 0ZM63.75-7.31L62.39-3.52L65.06-3.52L63.80-7.31L63.75-7.31ZM76.73-7.13L76.69-7.13L74.72 0L73.50 0L71.25-8.58L72.47-8.58L74.11-1.59L74.16-1.59L76.08-8.58L77.34-8.58L79.27-1.59L79.31-1.59L80.91-8.58L82.17-8.58L79.92 0L78.70 0L76.73-7.13ZM84.56-1.03L89.72-1.03L89.72 0L83.39 0L83.39-8.58L89.63-8.58L89.63-7.59L84.56-7.59L84.56-4.92L89.25-4.92L89.25-3.89L84.56-3.89L84.56-1.03ZM92.63-8.58L96.94-1.64L96.94-8.58L98.06-8.58L98.06 0L96.75 0L92.39-6.94L92.34-6.94L92.34 0L91.22 0L91.22-8.58L92.63-8.58ZM101.25-8.58L105.56-1.64L105.56-8.58L106.69-8.58L106.69 0L105.38 0L101.02-6.94L100.97-6.94L100.97 0L99.84 0L99.84-8.58L101.25-8.58ZM114.14-3.19L114.14-8.58L115.31-8.58L115.31-3.05Q115.17 0.05 111.80 0.14L111.80 0.14Q108.66 0.05 108.52-2.86L108.52-2.86L108.52-8.58L109.69-8.58L109.69-3.19Q109.73-0.84 111.84-0.80L111.84-0.80Q114.14-0.84 114.14-3.19L114.14-3.19ZM122.77 0L121.92-2.48L118.45-2.48L117.56 0L116.39 0L119.63-8.58L120.94-8.58L124.03 0L122.77 0ZM120.19-7.31L118.83-3.52L121.50-3.52L120.23-7.31L120.19-7.31ZM126.47-8.58L130.78-1.64L130.78-8.58L131.91-8.58L131.91 0L130.59 0L126.23-6.94L126.19-6.94L126.19 0L125.06 0L125.06-8.58L126.47-8.58Z" transform="translate(-0.515625, 8.8125)"></path></g></g></g></g></g><defs v-gra="od"></defs></svg>